HIERARCHY
ROOT Hips
{
	OFFSET 0.00 0.00 0.00
	CHANNELS 6 Xposition Yposition Zposition Xrotation Yrotation Zrotation
	JOINT Spine
	{
		OFFSET 0.00000 7.06766 0.00000
		CHANNELS 3 Xrotation Yrotation Zrotation
		JOINT Head
		{
			OFFSET 0.00000 15.03989 0.00000
			CHANNELS 3 Xrotation Yrotation Zrotation
			End Site
			{
				OFFSET 0.00000 4.52755 0.00000
			}
		}
		JOINT LeftShoulder
		{
			OFFSET 0.00000 10.53037 0.00000
			CHANNELS 3 Xrotation Yrotation Zrotation
			JOINT LeftArm
			{
				OFFSET 7.02886 0.00000 0.00000
				CHANNELS 3 Xrotation Yrotation Zrotation
				JOINT LeftForeArm
				{
					OFFSET 10.79770 0.00000 0.00000
					CHANNELS 3 Yrotation Zrotation Xrotation
					JOINT LeftHand
					{
						OFFSET 7.90744 0.00000 0.00000
						CHANNELS 3 Xrotation Yrotation Zrotation
						JOINT LeftHandThumb1
						{
							OFFSET 0.00000 0.00000 0.00000
							CHANNELS 3 Xrotation Zrotation Yrotation
							End Site
							{
								OFFSET 0.00000 0.00000 3.93700
							}
						}
						End Site
						{
							OFFSET 3.93700 0.00000 0.00000
						}
					}
				}
			}
		}
		JOINT RightShoulder
		{
			OFFSET 0.00000 10.53037 0.00000
			CHANNELS 3 Xrotation Yrotation Zrotation
			JOINT RightArm
			{
				OFFSET -7.02886 0.00000 0.00000
				CHANNELS 3 Xrotation Yrotation Zrotation
				JOINT RightForeArm
				{
					OFFSET -10.79770 0.00000 0.00000
					CHANNELS 3 Yrotation Zrotation Xrotation
					JOINT RightHand
					{
						OFFSET -7.90744 0.00000 0.00000
						CHANNELS 3 Xrotation Yrotation Zrotation
						JOINT RightHandThumb1
						{
							OFFSET 0.00000 0.00000 0.00000
							CHANNELS 3 Xrotation Zrotation Yrotation
							End Site
							{
								OFFSET 0.00000 0.00000 3.93700
							}
						}
						End Site
						{
							OFFSET -3.93700 0.00000 0.00000
						}
					}
				}
			}
		}
	}
	JOINT LeftUpLeg
	{
		OFFSET 4.01300 0.00000 0.00000
		CHANNELS 3 Xrotation Yrotation Zrotation
		JOINT LeftLeg
		{
			OFFSET 0.00000 -16.89976 0.00000
			CHANNELS 3 Xrotation Yrotation Zrotation
			JOINT LeftFoot
			{
				OFFSET 0.00000 -17.38918 0.00000
				CHANNELS 3 Xrotation Yrotation Zrotation
				JOINT LeftToeBase
				{
					OFFSET 0.00000 -1.27456 4.75673
					CHANNELS 3 Xrotation Yrotation Zrotation
					End Site
					{
						OFFSET 0.00000 0.00000 2.95275
					}
				}
			}
		}
	}
	JOINT RightUpLeg
	{
		OFFSET -4.01300 0.00000 0.00000
		CHANNELS 3 Xrotation Yrotation Zrotation
		JOINT RightLeg
		{
			OFFSET 0.00000 -16.89976 0.00000
			CHANNELS 3 Xrotation Yrotation Zrotation
			JOINT RightFoot
			{
				OFFSET 0.00000 -17.38918 0.00000
				CHANNELS 3 Xrotation Yrotation Zrotation
				JOINT RightToeBase
				{
					OFFSET 0.00000 -1.27456 4.75673
					CHANNELS 3 Xrotation Yrotation Zrotation
					End Site
					{
						OFFSET 0.00000 0.00000 2.95275
					}
				}
			}
		}
	}
}
MOTION
Frames: 22
Frame Time: 0.008333
 19.7239 35.4313 -19.7725 11.0535 14.7616 -2.3351 -23.5158 -6.7946 -7.1302 17.9809 -4.8096 6.5615 5.3928 4.8513 -1.4574 113.1172 -79.1458 -19.5207 -125.5650 -0.0000 52.0504 -3.4102 -9.5880 -19.6853 33.1476 -0.0000 26.2537 -21.3841 -3.3881 -32.9949 -99.4955 16.3481 15.6857 94.9168 0.0000 -7.3213 -1.1516 -2.3949 -25.6908 32.8623 0.0000 -24.3270 -1.5071 -1.9267 1.4169 -7.2783 -0.0000 -0.0000 -17.2588 28.4668 3.3032 25.9219 0.0000 -0.0000 1.6725 -18.6216 -0.3684 -4.6105 -0.0000 -0.0000 -18.6761 -33.3764 2.0202 23.3072 -0.0000 0.0000
 19.7268 35.4307 -19.7706 11.0048 14.7764 -2.3294 -23.4664 -6.9262 -7.1074 17.9799 -4.6806 6.6144 5.5327 4.8999 -1.3420 113.0240 -78.9366 -19.5585 -125.3398 -0.0000 52.4374 -3.4615 -9.7046 -19.7394 33.1476 -0.0000 26.2537 -21.2894 -3.3833 -32.9429 -99.1569 16.3011 15.5300 93.1744 0.0000 -6.7825 -1.1467 -2.4301 -25.2709 32.8623 0.0000 -24.3270 -1.4666 -1.9325 1.4203 -7.2587 0.0000 0.0000 -17.2834 28.4459 3.3203 25.9199 0.0000 -0.0000 1.7257 -18.6275 -0.3643 -4.6079 0.0000 0.0000 -18.6815 -33.3892 2.0154 23.3298 -0.0000 0.0000
 19.7297 35.4308 -19.7691 10.9732 14.7554 -2.3136 -23.4436 -7.0063 -7.0877 17.9715 -4.5492 6.6586 5.6608 4.9051 -1.1849 112.9900 -78.7972 -19.5419 -125.0613 -0.0000 52.9731 -3.5325 -9.9799 -19.6065 33.1476 -0.0000 26.2537 -21.1941 -3.3811 -32.8849 -98.8223 16.2507 15.3772 91.4579 0.0000 -6.1381 -0.9744 -2.1357 -24.5312 32.8623 0.0000 -24.3270 -1.4368 -1.9119 1.4105 -7.2499 -0.0000 -0.0000 -17.2899 28.4412 3.3307 25.9166 -0.0000 0.0000 1.7504 -18.6145 -0.3752 -4.6061 0.0000 0.0000 -18.6803 -33.3930 2.0169 23.3089 -0.0000 0.0000
 19.7331 35.4310 -19.7670 10.9345 14.7065 -2.2946 -23.4258 -7.0848 -7.0536 17.9701 -4.3908 6.6750 5.7376 4.9180 -1.0926 112.8855 -78.6160 -19.6932 -124.8093 -0.0000 53.3840 -3.5821 -10.1790 -19.5058 33.1476 -0.0000 26.2537 -21.0630 -3.3647 -32.7979 -98.6385 16.2128 15.2737 89.7846 0.0000 -5.5329 -0.9263 -2.1164 -23.6451 32.8623 0.0000 -24.3270 -1.3965 -1.8933 1.3994 -7.2361 0.0000 0.0000 -17.3082 28.4642 3.3419 25.9091 0.0000 -0.0000 1.7722 -18.5894 -0.3892 -4.5960 0.0000 -0.0000 -18.6746 -33.3875 2.0157 23.2985 0.0000 -0.0000
 19.7361 35.4314 -19.7656 10.8936 14.6326 -2.2765 -23.4039 -7.1376 -7.0121 17.9712 -4.2463 6.6977 5.7582 4.9152 -0.9966 112.6682 -78.4424 -20.0124 -124.5746 -0.0000 53.6761 -3.6874 -10.4254 -19.6034 33.1476 -0.0000 26.2537 -20.9152 -3.3483 -32.6942 -98.4583 16.1923 15.1462 88.1411 0.0000 -4.7349 -0.8556 -2.0513 -22.6478 32.8623 0.0000 -24.3270 -1.3513 -1.8487 1.3922 -7.2258 -0.0000 -0.0000 -17.3321 28.4807 3.3667 25.8798 -0.0000 0.0000 1.7906 -18.5672 -0.4010 -4.5857 -0.0000 -0.0000 -18.6723 -33.3545 2.0236 23.3246 0.0000 -0.0000
 19.7376 35.4320 -19.7664 10.8617 14.5466 -2.2572 -23.3852 -7.1670 -6.9747 17.9632 -4.1330 6.7325 5.8033 4.8950 -0.9156 112.4836 -78.2650 -20.2944 -124.3575 -0.0000 53.7879 -3.7712 -10.7165 -19.5182 33.1476 -0.0000 26.2537 -20.8411 -3.2664 -32.6142 -98.1604 16.1440 14.9527 86.5675 0.0000 -4.1940 -0.8029 -2.0111 -21.7696 32.8623 0.0000 -24.3270 -1.3313 -1.7989 1.3835 -7.1910 -0.0000 -0.0000 -17.3587 28.5099 3.3649 25.9092 0.0000 0.0000 1.7840 -18.5374 -0.4203 -4.5550 0.0000 0.0000 -18.6645 -33.3007 2.0096 23.2973 -0.0000 -0.0000
 19.7389 35.4323 -19.7659 10.8221 14.4463 -2.2432 -23.3554 -7.1708 -6.9267 17.9373 -4.0248 6.7835 5.9152 4.9152 -0.8275 112.4431 -78.1162 -20.3145 -124.1693 -0.0000 54.0525 -3.8862 -11.0507 -19.5145 33.1476 -0.0000 26.2537 -20.6714 -3.3178 -32.5057 -98.0314 16.1197 14.8940 85.1003 0.0000 -3.8578 -0.8082 -2.1044 -21.0155 32.8623 0.0000 -24.3270 -1.2911 -1.7467 1.3826 -7.1715 0.0000 0.0000 -17.3982 28.5424 3.3956 25.8678 -0.0000 0.0000 1.7909 -18.5049 -0.4276 -4.5361 0.0000 -0.0000 -18.6571 -33.2651 2.0500 23.3284 0.0000 0.0000
 19.7406 35.4331 -19.7648 10.7624 14.3331 -2.2172 -23.2910 -7.1750 -6.8837 17.8777 -3.9269 6.8310 5.9892 4.9615 -0.7384 112.6265 -77.9951 -20.0994 -123.9931 -0.0000 54.3243 -3.9221 -11.1964 -19.4476 33.1476 -0.0000 26.2537 -20.5558 -3.2913 -32.4272 -97.7719 16.0322 14.6744 83.7041 0.0000 -3.6619 -0.7569 -2.0712 -20.0789 32.8623 0.0000 -24.3270 -1.2236 -1.7124 1.3769 -7.1611 0.0000 0.0000 -17.4210 28.6013 3.4354 25.8452 -0.0000 0.0000 1.8124 -18.4841 -0.4436 -4.5144 -0.0000 0.0000 -18.6440 -33.1984 2.0639 23.3232 0.0000 -0.0000
 19.7423 35.4338 -19.7649 10.7134 14.2036 -2.1943 -23.2407 -7.1566 -6.8326 17.8283 -3.8328 6.8896 6.1229 4.9718 -0.6636 112.8041 -77.8757 -19.8490 -123.8529 -0.0000 54.6746 -3.8597 -11.1769 -19.1905 33.1476 -0.0000 26.2537 -20.4232 -3.2704 -32.3756 -97.4634 15.9010 14.4120 82.3525 0.0000 -3.5843 -0.6389 -1.8363 -19.1883 32.8623 0.0000 -24.3270 -1.1792 -1.6336 1.3706 -7.1300 0.0000 0.0000 -17.4620 28.6406 3.4528 25.8579 0.0000 -0.0000 1.8196 -18.4412 -0.4601 -4.4944 -0.0000 -0.0000 -18.6255 -33.1376 2.0858 23.3306 0.0000 -0.0000
 19.7439 35.4341 -19.7652 10.6627 14.0682 -2.1713 -23.1895 -7.1334 -6.7795 17.7829 -3.7566 6.9430 6.1549 4.9568 -0.6009 113.1831 -77.7712 -19.5473 -123.7107 -0.0000 55.0519 -3.8005 -11.2415 -18.8167 33.1476 -0.0000 26.2537 -20.2900 -3.2666 -32.3121 -97.0976 15.8105 14.1594 81.0720 0.0000 -3.4484 -0.6553 -1.9270 -18.7844 32.8623 0.0000 -24.3270 -1.1221 -1.5888 1.3667 -7.1137 -0.0000 -0.0000 -17.5034 28.7037 3.4893 25.8008 0.0000 -0.0000 1.8307 -18.3922 -0.4751 -4.4806 0.0000 0.0000 -18.6213 -33.0792 2.0995 23.3799 0.0000 -0.0000
 19.7460 35.4346 -19.7662 10.6009 13.9253 -2.1490 -23.1280 -7.1279 -6.7115 17.7531 -3.6556 6.9649 6.2203 4.9971 -0.5432 113.5276 -77.6709 -19.1524 -123.6190 -0.0000 55.3618 -3.8246 -11.4876 -18.5557 33.1476 -0.0000 26.2537 -20.1883 -3.2113 -32.2334 -96.6452 15.7495 13.8673 79.8504 0.0000 -3.3977 -0.6726 -2.0217 -18.4060 32.8623 0.0000 -24.3270 -1.0582 -1.5130 1.3542 -7.1069 -0.0000 -0.0000 -17.5404 28.8014 3.6154 25.7843 -0.0000 0.0000 1.8455 -18.3531 -0.4920 -4.4559 -0.0000 -0.0000 -18.5954 -32.9988 2.1306 23.3834 -0.0000 0.0000
 19.7469 35.4353 -19.7692 10.5477 13.7859 -2.1310 -23.0690 -7.1124 -6.6420 17.7253 -3.5723 6.9857 6.2800 5.0167 -0.4851 114.1369 -77.6166 -18.5050 -123.5268 -0.0000 55.8832 -3.7435 -11.5398 -18.1113 33.1476 -0.0000 26.2537 -20.1047 -3.1850 -32.1523 -96.2458 15.6679 13.6647 78.6913 0.0000 -3.1982 -0.6756 -2.0732 -18.0542 32.8623 0.0000 -24.3270 -1.0077 -1.4613 1.3542 -7.0834 -0.0000 0.0000 -17.5966 28.8679 3.6669 25.8451 0.0000 0.0000 1.8559 -18.3101 -0.5017 -4.4448 -0.0000 -0.0000 -18.5629 -32.9398 2.1741 23.3556 0.0000 -0.0000
 19.7472 35.4362 -19.7711 10.4975 13.6301 -2.1191 -23.0159 -7.0850 -6.5630 17.7129 -3.5029 6.9950 6.3220 5.0393 -0.4232 114.7024 -77.5372 -17.8955 -123.4848 -0.0000 56.1448 -3.6880 -11.7759 -17.5277 33.1476 -0.0000 26.2537 -20.0335 -3.1543 -32.0493 -95.8045 15.6278 13.4554 77.5695 0.0000 -3.1317 -0.7427 -2.3071 -17.8506 32.8623 0.0000 -24.3270 -0.9570 -1.3782 1.3694 -7.0470 -0.0000 -0.0000 -17.6335 28.8672 3.6274 25.8061 0.0000 -0.0000 1.8674 -18.2768 -0.5043 -4.4386 0.0000 0.0000 -18.5156 -32.8482 2.2255 23.3591 -0.0000 0.0000
 19.7478 35.4373 -19.7734 10.4562 13.4707 -2.1011 -22.9817 -7.0570 -6.4956 17.7256 -3.4381 7.0036 6.3802 5.0591 -0.3747 114.8827 -77.4296 -17.6600 -123.4617 -0.0000 56.3916 -3.6515 -11.9558 -17.1221 33.1476 -0.0000 26.2537 -19.9153 -3.1378 -31.9216 -95.3247 15.6253 13.2152 76.5140 0.0000 -2.9821 -0.7539 -2.3475 -17.8101 32.8623 0.0000 -24.3270 -0.9100 -1.3084 1.3684 -7.0342 -0.0000 0.0000 -17.6690 28.9349 3.6548 25.7789 -0.0000 0.0000 1.8631 -18.2256 -0.5189 -4.4227 0.0000 -0.0000 -18.4868 -32.7588 2.2628 23.4227 -0.0000 0.0000
 19.7487 35.4385 -19.7753 10.4167 13.3174 -2.0776 -22.9521 -7.0249 -6.4388 17.7409 -3.3623 7.0327 6.4110 5.0692 -0.3413 115.0229 -77.3399 -17.5220 -123.4584 -0.0000 56.5561 -3.5237 -11.7881 -16.7738 33.1476 -0.0000 26.2537 -19.8159 -3.1438 -31.7832 -94.8877 15.6138 13.0317 75.5111 0.0000 -2.6436 -0.7630 -2.3813 -17.7715 32.8623 0.0000 -24.3270 -0.8633 -1.2457 1.3519 -7.0368 -0.0000 -0.0000 -17.6917 29.0515 3.7538 25.7435 -0.0000 0.0000 1.8649 -18.1615 -0.5364 -4.4268 -0.0000 0.0000 -18.4562 -32.7052 2.2941 23.4458 0.0000 -0.0000
 19.7491 35.4396 -19.7780 10.3827 13.1609 -2.0622 -22.9230 -6.9873 -6.3735 17.7499 -3.2761 7.0661 6.3979 5.0839 -0.3011 114.9202 -77.2382 -17.6529 -123.5085 -0.0000 56.6042 -3.4582 -11.7773 -16.4926 33.1476 -0.0000 26.2537 -19.7707 -3.1072 -31.6707 -94.3737 15.5438 12.8216 74.6483 0.0000 -2.2523 -0.8343 -2.5974 -17.8145 32.8623 0.0000 -24.3270 -0.8257 -1.1742 1.3506 -7.0221 -0.0000 0.0000 -17.7263 29.1265 3.7730 25.6795 -0.0000 -0.0000 1.8569 -18.0927 -0.5497 -4.4178 -0.0000 -0.0000 -18.4331 -32.6394 2.3165 23.4584 0.0000 -0.0000
 19.7506 35.4403 -19.7808 10.3573 12.9941 -2.0445 -22.9091 -6.9436 -6.3104 17.7796 -3.2131 7.1131 6.4011 5.1062 -0.2693 114.7142 -77.1160 -17.8775 -123.6132 -0.0000 56.7419 -3.4164 -11.8383 -16.2248 33.1476 -0.0000 26.2537 -19.6926 -3.0819 -31.5618 -93.9213 15.4618 12.6343 73.8171 0.0000 -1.8233 -0.7718 -2.3993 -17.8383 32.8623 0.0000 -24.3270 -0.7860 -1.0947 1.3429 -7.0272 0.0000 0.0000 -17.7579 29.1959 3.8184 25.7023 0.0000 -0.0000 1.8349 -18.0030 -0.5724 -4.4041 -0.0000 0.0000 -18.4076 -32.5843 2.3611 23.4935 0.0000 -0.0000
 19.7523 35.4408 -19.7814 10.3202 12.8423 -2.0265 -22.8908 -6.9119 -6.2463 17.8280 -3.1570 7.1483 6.4140 5.1177 -0.2055 114.4885 -77.0653 -18.0987 -123.7185 -0.0000 56.9240 -3.3453 -11.7626 -15.9996 33.1476 -0.0000 26.2537 -19.5880 -3.0629 -31.4820 -93.4850 15.3110 12.4356 73.1274 0.0000 -1.0841 -0.8693 -2.6752 -18.0091 32.8623 0.0000 -24.3270 -0.7292 -1.0215 1.3375 -7.0367 -0.0000 -0.0000 -17.7730 29.2582 3.8387 25.6700 0.0000 0.0000 1.8371 -17.9463 -0.5892 -4.4019 0.0000 0.0000 -18.3708 -32.5068 2.4187 23.5024 0.0000 0.0000
 19.7537 35.4409 -19.7843 10.2873 12.7024 -2.0087 -22.8658 -6.8926 -6.1854 17.8523 -3.1199 7.1716 6.4444 5.1412 -0.1527 114.1891 -77.0116 -18.3516 -123.8366 -0.0000 57.1796 -3.3979 -11.9978 -15.9406 33.1476 -0.0000 26.2537 -19.3665 -3.1083 -31.3625 -93.1541 15.2330 12.2048 72.4600 0.0000 -0.4243 -0.8227 -2.5368 -17.9739 32.8623 0.0000 -24.3270 -0.6885 -0.9241 1.3279 -7.0370 -0.0000 -0.0000 -17.8016 29.2939 3.8661 25.6636 -0.0000 0.0000 1.8329 -17.8915 -0.6065 -4.3969 0.0000 0.0000 -18.3543 -32.4325 2.4376 23.5331 -0.0000 0.0000
 19.7544 35.4412 -19.7876 10.2587 12.5716 -1.9932 -22.8461 -6.8836 -6.1264 17.8683 -3.0536 7.1996 6.5246 5.1779 -0.0950 113.9591 -76.9642 -18.4445 -123.9453 -0.0000 57.4541 -3.3944 -12.1173 -15.7781 33.1476 -0.0000 26.2537 -19.1846 -3.1243 -31.2472 -92.8510 15.1316 12.0054 71.8268 0.0000 0.5737 -0.8459 -2.5957 -18.0570 32.8623 0.0000 -24.3270 -0.6516 -0.8415 1.3200 -7.0388 -0.0000 0.0000 -17.8181 29.3375 3.8843 25.6605 0.0000 -0.0000 1.8287 -17.8300 -0.6219 -4.3952 0.0000 -0.0000 -18.3320 -32.3694 2.4767 23.5472 0.0000 0.0000
 19.7543 35.4413 -19.7928 10.2401 12.4441 -1.9865 -22.8303 -6.8746 -6.0531 17.8678 -3.0034 7.1990 6.5363 5.2132 -0.0194 113.9992 -76.9375 -18.2891 -124.0142 -0.0000 57.8356 -3.3247 -12.0770 -15.5174 33.1476 -0.0000 26.2537 -19.0824 -3.1041 -31.1522 -92.4568 15.0246 11.8281 71.2775 0.0000 1.5456 -0.8217 -2.5115 -18.1242 32.8623 0.0000 -24.3270 -0.6312 -0.7571 1.3204 -7.0348 -0.0000 -0.0000 -17.8471 29.3671 3.9232 25.6447 -0.0000 -0.0000 1.8101 -17.7458 -0.6310 -4.3860 0.0000 0.0000 -18.3148 -32.3267 2.4755 23.5289 0.0000 -0.0000
 19.7544 35.4412 -19.7970 10.2250 12.3429 -1.9770 -22.8152 -6.8984 -5.9958 17.8416 -2.9302 7.2069 6.5954 5.2816 0.0423 114.1185 -76.9043 -17.9731 -124.0600 -0.0000 58.1103 -3.2888 -12.2163 -15.1932 33.1476 -0.0000 26.2537 -18.9584 -3.1316 -31.0301 -92.1486 14.9383 11.7130 70.7614 0.0000 2.5462 -0.8427 -2.5558 -18.2545 32.8623 0.0000 -24.3270 -0.6108 -0.7037 1.3166 -7.0375 0.0000 0.0000 -17.8686 29.4052 3.9458 25.6597 -0.0000 -0.0000 1.7988 -17.6976 -0.6395 -4.3904 0.0000 0.0000 -18.3023 -32.2874 2.4923 23.5558 0.0000 -0.0000
